<mxfile host="Electron" modified="2023-12-01T12:56:47.445Z" agent="Mozilla/5.0 (Windows NT 10.0; Win64; x64) AppleWebKit/537.36 (KHTML, like Gecko) draw.io/22.0.3 Chrome/114.0.5735.289 Electron/25.8.4 Safari/537.36" etag="5p-59r5aWrUlGJ_L8aRM" version="22.0.3" type="device">
  <diagram id="R2lEEEUBdFMjLlhIrx00" name="Page-1">
    <mxGraphModel dx="1418" dy="828" grid="1" gridSize="10" guides="1" tooltips="1" connect="1" arrows="1" fold="1" page="1" pageScale="1" pageWidth="850" pageHeight="1100" math="0" shadow="0" extFonts="Permanent Marker^https://fonts.googleapis.com/css?family=Permanent+Marker">
      <root>
        <mxCell id="0" />
        <mxCell id="1" parent="0" />
        <mxCell id="5eIYoJr3TFaVYBD9oODD-2" value="LIBRO" style="rounded=0;whiteSpace=wrap;html=1;fontSize=20;fillColor=#dae8fc;strokeColor=#6c8ebf;" parent="1" vertex="1">
          <mxGeometry x="570.5600000000001" y="205.25999999999988" width="120" height="60" as="geometry" />
        </mxCell>
        <mxCell id="5eIYoJr3TFaVYBD9oODD-3" value="&lt;span style=&quot;font-size: 17px&quot;&gt;prestito&lt;/span&gt;" style="rhombus;whiteSpace=wrap;html=1;fontSize=20;fillColor=#ffff88;strokeColor=#36393d;" parent="1" vertex="1">
          <mxGeometry x="351.52" y="99.99999999999989" width="153" height="80" as="geometry" />
        </mxCell>
        <mxCell id="5eIYoJr3TFaVYBD9oODD-4" value="" style="endArrow=none;html=1;entryX=0.957;entryY=0.464;entryDx=0;entryDy=0;exitX=0;exitY=0.5;exitDx=0;exitDy=0;entryPerimeter=0;" parent="1" source="5eIYoJr3TFaVYBD9oODD-2" target="5eIYoJr3TFaVYBD9oODD-3" edge="1">
          <mxGeometry width="50" height="50" relative="1" as="geometry">
            <mxPoint x="570.5600000000001" y="305.39" as="sourcePoint" />
            <mxPoint x="488.78999999999996" y="305.2599999999999" as="targetPoint" />
            <Array as="points">
              <mxPoint x="549" y="225.13" />
              <mxPoint x="549" y="137.13" />
            </Array>
          </mxGeometry>
        </mxCell>
        <mxCell id="5eIYoJr3TFaVYBD9oODD-5" value="" style="endArrow=none;html=1;entryX=0;entryY=0.5;entryDx=0;entryDy=0;exitX=0.5;exitY=0;exitDx=0;exitDy=0;" parent="1" source="5eIYoJr3TFaVYBD9oODD-30" target="5eIYoJr3TFaVYBD9oODD-3" edge="1">
          <mxGeometry width="50" height="50" relative="1" as="geometry">
            <mxPoint x="257.52" y="209.87" as="sourcePoint" />
            <mxPoint x="514.71" y="339.9999999999999" as="targetPoint" />
            <Array as="points">
              <mxPoint x="219" y="140.13" />
              <mxPoint x="283.51" y="140.13" />
            </Array>
          </mxGeometry>
        </mxCell>
        <mxCell id="5eIYoJr3TFaVYBD9oODD-6" value="" style="endArrow=classic;html=1;strokeColor=#000000;" parent="1" edge="1">
          <mxGeometry width="50" height="50" relative="1" as="geometry">
            <mxPoint x="295.2099999999998" y="135.1299999999991" as="sourcePoint" />
            <mxPoint x="345.2099999999996" y="135.1299999999991" as="targetPoint" />
          </mxGeometry>
        </mxCell>
        <mxCell id="5eIYoJr3TFaVYBD9oODD-7" value="" style="endArrow=classic;html=1;strokeColor=#000000;" parent="1" edge="1">
          <mxGeometry width="50" height="50" relative="1" as="geometry">
            <mxPoint x="554.52" y="131.12999999999897" as="sourcePoint" />
            <mxPoint x="504.51999999999975" y="131.12999999999897" as="targetPoint" />
          </mxGeometry>
        </mxCell>
        <mxCell id="5eIYoJr3TFaVYBD9oODD-8" value="&lt;font color=&quot;#cc0000&quot;&gt;&lt;u&gt;PROGETTAZIONE CONCETTUALE&lt;/u&gt;&lt;/font&gt;" style="text;html=1;strokeColor=none;fillColor=none;align=center;verticalAlign=middle;whiteSpace=wrap;rounded=0;fontSize=20;" parent="1" vertex="1">
          <mxGeometry x="327" y="20" width="215.01" height="40" as="geometry" />
        </mxCell>
        <mxCell id="5eIYoJr3TFaVYBD9oODD-9" value="preso da&#xa;(0, n) " style="text;align=center;fontStyle=1;verticalAlign=middle;spacingLeft=3;spacingRight=3;strokeColor=none;rotatable=0;points=[[0,0.5],[1,0.5]];portConstraint=eastwest;" parent="1" vertex="1">
          <mxGeometry x="464.07" y="99.99999999999989" width="120" height="26" as="geometry" />
        </mxCell>
        <mxCell id="5eIYoJr3TFaVYBD9oODD-10" value="prende in carico&#xa;(0, n)" style="text;align=center;fontStyle=1;verticalAlign=middle;spacingLeft=3;spacingRight=3;strokeColor=none;rotatable=0;points=[[0,0.5],[1,0.5]];portConstraint=eastwest;" parent="1" vertex="1">
          <mxGeometry x="274.71" y="105.13" width="91" height="26" as="geometry" />
        </mxCell>
        <mxCell id="5eIYoJr3TFaVYBD9oODD-11" value="" style="endArrow=none;html=1;entryX=0;entryY=1;entryDx=0;entryDy=0;exitX=0.587;exitY=0.05;exitDx=0;exitDy=0;exitPerimeter=0;" parent="1" source="5eIYoJr3TFaVYBD9oODD-12" target="5eIYoJr3TFaVYBD9oODD-3" edge="1">
          <mxGeometry width="50" height="50" relative="1" as="geometry">
            <mxPoint x="373.28999999999996" y="184.9999999999999" as="sourcePoint" />
            <mxPoint x="461.3140000000001" y="177.9999999999999" as="targetPoint" />
          </mxGeometry>
        </mxCell>
        <mxCell id="5eIYoJr3TFaVYBD9oODD-12" value="dataPrestito" style="text;html=1;strokeColor=#b85450;fillColor=#f8cecc;align=center;verticalAlign=middle;whiteSpace=wrap;rounded=0;" parent="1" vertex="1">
          <mxGeometry x="298.99999999999994" y="180" width="118" height="20.13" as="geometry" />
        </mxCell>
        <mxCell id="5eIYoJr3TFaVYBD9oODD-13" value="" style="endArrow=none;html=1;entryX=1;entryY=0.75;entryDx=0;entryDy=0;exitX=0;exitY=0.5;exitDx=0;exitDy=0;" parent="1" source="5eIYoJr3TFaVYBD9oODD-14" target="5eIYoJr3TFaVYBD9oODD-2" edge="1">
          <mxGeometry width="50" height="50" relative="1" as="geometry">
            <mxPoint x="713.7239358758168" y="323.6183324840871" as="sourcePoint" />
            <mxPoint x="697.7840000000001" y="253.2600000000001" as="targetPoint" />
          </mxGeometry>
        </mxCell>
        <mxCell id="5eIYoJr3TFaVYBD9oODD-14" value="autore" style="text;html=1;strokeColor=#b85450;fillColor=#f8cecc;align=center;verticalAlign=middle;whiteSpace=wrap;rounded=0;" parent="1" vertex="1">
          <mxGeometry x="717.78" y="238.39" width="103.99" height="15.13" as="geometry" />
        </mxCell>
        <mxCell id="5eIYoJr3TFaVYBD9oODD-15" value="" style="endArrow=none;html=1;entryX=1;entryY=0.25;entryDx=0;entryDy=0;exitX=0;exitY=0.5;exitDx=0;exitDy=0;" parent="1" source="5eIYoJr3TFaVYBD9oODD-16" target="5eIYoJr3TFaVYBD9oODD-2" edge="1">
          <mxGeometry width="50" height="50" relative="1" as="geometry">
            <mxPoint x="727.3339358758168" y="277.6183324840871" as="sourcePoint" />
            <mxPoint x="704.1700000000002" y="204.25999999999988" as="targetPoint" />
          </mxGeometry>
        </mxCell>
        <mxCell id="5eIYoJr3TFaVYBD9oODD-16" value="&lt;span&gt;titolo&lt;/span&gt;" style="text;html=1;strokeColor=#b85450;fillColor=#f8cecc;align=center;verticalAlign=middle;whiteSpace=wrap;rounded=0;" parent="1" vertex="1">
          <mxGeometry x="717.78" y="205.13" width="103.99" height="15.26" as="geometry" />
        </mxCell>
        <mxCell id="5eIYoJr3TFaVYBD9oODD-30" value="UTENTE&lt;br&gt;BIBLIOTECA" style="rounded=0;whiteSpace=wrap;html=1;fontSize=20;fillColor=#dae8fc;strokeColor=#6c8ebf;" parent="1" vertex="1">
          <mxGeometry x="159.35000000000002" y="225.13" width="120" height="60" as="geometry" />
        </mxCell>
        <mxCell id="5eIYoJr3TFaVYBD9oODD-32" value="nominativo" style="text;html=1;strokeColor=#b85450;fillColor=#f8cecc;align=center;verticalAlign=middle;whiteSpace=wrap;rounded=0;" parent="1" vertex="1">
          <mxGeometry x="28.99999999999993" y="235.13" width="103.99" height="20" as="geometry" />
        </mxCell>
        <mxCell id="5eIYoJr3TFaVYBD9oODD-33" value="codice_tessera" style="text;html=1;strokeColor=#b85450;fillColor=#f8cecc;align=center;verticalAlign=middle;whiteSpace=wrap;rounded=0;" parent="1" vertex="1">
          <mxGeometry x="66.99999999999994" y="195.13" width="103.99" height="20" as="geometry" />
        </mxCell>
        <mxCell id="5eIYoJr3TFaVYBD9oODD-35" value="" style="endArrow=none;html=1;exitX=0.5;exitY=1;exitDx=0;exitDy=0;entryX=0;entryY=0.75;entryDx=0;entryDy=0;" parent="1" source="5eIYoJr3TFaVYBD9oODD-32" target="5eIYoJr3TFaVYBD9oODD-30" edge="1">
          <mxGeometry width="50" height="50" relative="1" as="geometry">
            <mxPoint x="367" y="295.13" as="sourcePoint" />
            <mxPoint x="417" y="245.13" as="targetPoint" />
          </mxGeometry>
        </mxCell>
        <mxCell id="5eIYoJr3TFaVYBD9oODD-36" value="" style="endArrow=none;html=1;exitX=0.5;exitY=1;exitDx=0;exitDy=0;entryX=0;entryY=0.5;entryDx=0;entryDy=0;" parent="1" source="5eIYoJr3TFaVYBD9oODD-33" target="5eIYoJr3TFaVYBD9oODD-30" edge="1">
          <mxGeometry width="50" height="50" relative="1" as="geometry">
            <mxPoint x="128.6449999999999" y="225.13" as="sourcePoint" />
            <mxPoint x="206.99999999999991" y="240.13" as="targetPoint" />
          </mxGeometry>
        </mxCell>
        <mxCell id="5eIYoJr3TFaVYBD9oODD-43" value="" style="endArrow=none;html=1;entryX=0.673;entryY=0.002;entryDx=0;entryDy=0;exitX=0.5;exitY=1;exitDx=0;exitDy=0;entryPerimeter=0;" parent="1" source="5eIYoJr3TFaVYBD9oODD-44" target="5eIYoJr3TFaVYBD9oODD-2" edge="1">
          <mxGeometry width="50" height="50" relative="1" as="geometry">
            <mxPoint x="720.0439358758168" y="237.7483324840871" as="sourcePoint" />
            <mxPoint x="683.27" y="180.38999999999987" as="targetPoint" />
          </mxGeometry>
        </mxCell>
        <mxCell id="5eIYoJr3TFaVYBD9oODD-44" value="&lt;span&gt;stato: libero | in prestito&lt;/span&gt;" style="text;html=1;strokeColor=#b85450;fillColor=#f8cecc;align=center;verticalAlign=middle;whiteSpace=wrap;rounded=0;" parent="1" vertex="1">
          <mxGeometry x="689.78" y="150.39" width="160" height="20" as="geometry" />
        </mxCell>
        <mxCell id="5o51xD9r45irtGMKJwJG-3" value="codice_isbn" style="text;html=1;strokeColor=#b85450;fillColor=#f8cecc;align=center;verticalAlign=middle;whiteSpace=wrap;rounded=0;" parent="1" vertex="1">
          <mxGeometry x="623.27" y="297.63" width="103.99" height="15.26" as="geometry" />
        </mxCell>
        <mxCell id="5o51xD9r45irtGMKJwJG-4" value="" style="endArrow=none;html=1;entryX=0.5;entryY=1;entryDx=0;entryDy=0;exitX=0.5;exitY=0;exitDx=0;exitDy=0;" parent="1" source="5o51xD9r45irtGMKJwJG-3" target="5eIYoJr3TFaVYBD9oODD-2" edge="1">
          <mxGeometry width="50" height="50" relative="1" as="geometry">
            <mxPoint x="727.78" y="262.82500000000005" as="sourcePoint" />
            <mxPoint x="700.56" y="260.2599999999999" as="targetPoint" />
          </mxGeometry>
        </mxCell>
        <mxCell id="5o51xD9r45irtGMKJwJG-5" value="editore" style="text;html=1;strokeColor=#b85450;fillColor=#f8cecc;align=center;verticalAlign=middle;whiteSpace=wrap;rounded=0;" parent="1" vertex="1">
          <mxGeometry x="703.27" y="270.69" width="103.99" height="15.13" as="geometry" />
        </mxCell>
        <mxCell id="5o51xD9r45irtGMKJwJG-6" value="" style="endArrow=none;html=1;entryX=0.75;entryY=1;entryDx=0;entryDy=0;exitX=0;exitY=0.5;exitDx=0;exitDy=0;" parent="1" source="5o51xD9r45irtGMKJwJG-5" target="5eIYoJr3TFaVYBD9oODD-2" edge="1">
          <mxGeometry width="50" height="50" relative="1" as="geometry">
            <mxPoint x="727.78" y="262.82500000000005" as="sourcePoint" />
            <mxPoint x="700.56" y="260.2599999999999" as="targetPoint" />
          </mxGeometry>
        </mxCell>
        <mxCell id="5o51xD9r45irtGMKJwJG-9" value="" style="endArrow=none;html=1;entryX=1;entryY=1;entryDx=0;entryDy=0;" parent="1" target="5eIYoJr3TFaVYBD9oODD-3" edge="1">
          <mxGeometry width="50" height="50" relative="1" as="geometry">
            <mxPoint x="480" y="190" as="sourcePoint" />
            <mxPoint x="470.75" y="170.38999999999987" as="targetPoint" />
          </mxGeometry>
        </mxCell>
        <mxCell id="5o51xD9r45irtGMKJwJG-10" value="dataRestituzione" style="text;html=1;strokeColor=#b85450;fillColor=#f8cecc;align=center;verticalAlign=middle;whiteSpace=wrap;rounded=0;" parent="1" vertex="1">
          <mxGeometry x="424.99999999999994" y="185" width="118" height="20.13" as="geometry" />
        </mxCell>
        <mxCell id="KWqKBwm2DJ8BhiJCc3nm-3" value="anno_edizione" style="text;html=1;strokeColor=#b85450;fillColor=#f8cecc;align=center;verticalAlign=middle;whiteSpace=wrap;rounded=0;" parent="1" vertex="1">
          <mxGeometry x="630" y="126" width="103.99" height="15.26" as="geometry" />
        </mxCell>
        <mxCell id="KWqKBwm2DJ8BhiJCc3nm-4" value="" style="endArrow=none;html=1;exitX=0.5;exitY=1;exitDx=0;exitDy=0;" parent="1" source="KWqKBwm2DJ8BhiJCc3nm-3" target="5eIYoJr3TFaVYBD9oODD-2" edge="1">
          <mxGeometry width="50" height="50" relative="1" as="geometry">
            <mxPoint x="727.78" y="81.06500000000005" as="sourcePoint" />
            <mxPoint x="631" y="83.24000000000001" as="targetPoint" />
          </mxGeometry>
        </mxCell>
        <mxCell id="KWqKBwm2DJ8BhiJCc3nm-5" value="note" style="text;html=1;strokeColor=#b85450;fillColor=#f8cecc;align=center;verticalAlign=middle;whiteSpace=wrap;rounded=0;" parent="1" vertex="1">
          <mxGeometry x="570.56" y="105.13" width="103.99" height="15.26" as="geometry" />
        </mxCell>
        <mxCell id="KWqKBwm2DJ8BhiJCc3nm-6" value="" style="endArrow=none;html=1;exitX=0.5;exitY=1;exitDx=0;exitDy=0;entryX=0.337;entryY=0.016;entryDx=0;entryDy=0;entryPerimeter=0;" parent="1" source="KWqKBwm2DJ8BhiJCc3nm-5" target="5eIYoJr3TFaVYBD9oODD-2" edge="1">
          <mxGeometry width="50" height="50" relative="1" as="geometry">
            <mxPoint x="698.3399999999999" y="60.19500000000005" as="sourcePoint" />
            <mxPoint x="607.56" y="184.13" as="targetPoint" />
          </mxGeometry>
        </mxCell>
      </root>
    </mxGraphModel>
  </diagram>
</mxfile>
